<svg width="13" height="13" viewBox="0 0 13 13" fill="none" xmlns="http://www.w3.org/2000/svg">
<path fill-rule="evenodd" clip-rule="evenodd" d="M11.0865 4.91365L12.25 3.75019L12.25 3.75015C12.3297 3.67052 12.3695 3.6307 12.4015 3.59544C13.0949 2.83263 13.0949 1.66774 12.4015 0.904928C12.3695 0.869674 12.3297 0.829855 12.25 0.750231L12.25 0.750186C12.1703 0.670532 12.1305 0.630705 12.0952 0.598654C11.3324 -0.0947335 10.1675 -0.0947335 9.40473 0.598654C9.36947 0.630705 9.32964 0.670532 9.24998 0.750187L8.06894 1.93123C8.78224 3.17638 9.82429 4.21032 11.0865 4.91365ZM6.61424 3.38593L1.85637 8.14381C1.4313 8.56887 1.21877 8.7814 1.07904 9.04249C0.939305 9.30359 0.88036 9.59832 0.762469 10.1878L0.397073 12.0148C0.330551 12.3474 0.29729 12.5137 0.391898 12.6083C0.486506 12.7029 0.652811 12.6696 0.985422 12.6031L2.8124 12.2377L2.81241 12.2377C3.40186 12.1198 3.69658 12.0609 3.95768 11.9211C4.21877 11.7814 4.4313 11.5689 4.85635 11.1438L4.85636 11.1438L4.85637 11.1438L9.62803 6.37214C8.41706 5.6039 7.38963 4.58339 6.61424 3.38593Z" fill="#1C1C28"/>
</svg>
