<svg width="129" height="37" viewBox="0 0 129 37" fill="none" xmlns="http://www.w3.org/2000/svg">
<path d="M47.6963 -64.8187C41.7485 -52.8888 26.5025 -45.3241 18.9412 -39.4207C12.0213 -34.0158 -0.365018 -19.8319 0.0082475 -9.8718C0.379989 0.0913162 7.96566 9.99821 17.9219 10.8296C22.2549 11.1898 26.5893 9.91308 30.9268 10.2079C44.8108 11.1533 52.5442 26.6885 64.7507 33.3504C78.8206 41.029 96.751 35.5983 109.768 26.2553C118.047 20.314 125.497 12.4316 128.134 2.60377C130.77 -7.22256 127.351 -19.1266 118.375 -23.9539C110.286 -28.3039 97.9668 -27.6656 94.8177 -36.276C92.6131 -42.2964 96.911 -48.5904 97.8769 -54.927C99.3883 -64.8551 91.8178 -74.7377 82.2226 -77.773C72.6259 -80.8068 61.8743 -77.9387 53.6107 -72.2025C51.0539 -70.2707 49.0209 -67.7327 47.6963 -64.8187Z" fill="#6698FA"/>
</svg>
