<svg width="144" height="46" viewBox="0 0 144 46" fill="none" xmlns="http://www.w3.org/2000/svg">
<path d="M38.8681 -95.3061C28.1806 -95.1117 20.5702 -85.5122 23.9223 -76.4565C24.8325 -74.0028 26.3494 -71.1219 24.6775 -69.2769C23.6899 -68.41 22.3687 -67.862 20.8947 -67.7081C2.87998 -64.2794 -17.9066 -65.1716 -31.7841 -55.6012C-35.4499 -53.0753 -38.6482 -49.6114 -35.5711 -44.0224C-34.0199 -41.3105 -31.4874 -39.0132 -28.3939 -37.5119C-21.1175 -33.8735 -12.9973 -33.936 -5.31038 -31.8733C-5.24563 -31.8552 -5.17856 -31.8379 -5.11206 -31.819C-3.12654 -31.2387 -1.32037 -30.1696 0.059694 -28.7576C1.43976 -27.3456 2.32643 -25.6597 2.59858 -23.9301C2.87073 -22.2006 2.51506 -20.5117 1.58021 -19.0942C0.64536 -17.6767 -0.823072 -16.5998 -2.62456 -16.0105L-10.5029 -13.4052C-18.9537 -10.6089 -27.656 -7.67741 -32.5312 -0.863735C-34.7057 2.03706 -35.5566 5.61474 -34.9455 9.28738C-32.4492 22.4031 -13.0839 26.3444 -0.449584 22.5332C11.171 19.0269 20.1772 11.4028 32.015 8.30912C35.6322 7.18046 39.6996 7.02424 43.721 7.85949C50.5893 9.60473 55.3834 15.2385 59.7642 20.3023C68.8821 30.846 79.7558 41.2119 94.6901 44.7834C98.2456 45.6985 101.888 46.0138 105.401 45.7105C108.913 45.4072 112.224 44.4916 115.135 43.0181C130.92 34.5513 123.103 14.2531 111.239 3.42516C109.234 1.59471 107.733 -0.574359 106.87 -2.88767C106.006 -5.20097 105.808 -7.58621 106.292 -9.82954C108.454 -19.4906 120.778 -17.0304 129.656 -19.0337C134.241 -20.0671 138.087 -22.4253 140.591 -25.7378C143.096 -29.0503 144.116 -33.1296 143.492 -37.3348C142.868 -41.54 140.635 -45.633 137.143 -48.9708C133.652 -52.3087 129.101 -54.7023 124.204 -55.7757C117.548 -57.2335 110.929 -56.1408 104.28 -56.1427C97.627 -56.1457 89.9435 -57.7265 85.7894 -62.6388C83.11 -65.8082 82.4767 -69.6912 81.1218 -73.3125C75.1602 -89.2645 53.7871 -95.5763 38.8681 -95.3061Z" fill="#FF8800"/>
</svg>
