<svg width="100" height="100" viewBox="0 0 100 100" fill="none" xmlns="http://www.w3.org/2000/svg">
<path d="M12.5 20.5C12.5 16.7288 12.5 14.8431 13.6716 13.6716C14.8431 12.5 16.7288 12.5 20.5 12.5H79.5C83.2712 12.5 85.1569 12.5 86.3284 13.6716C87.5 14.8431 87.5 16.7288 87.5 20.5V79.5C87.5 83.2712 87.5 85.1569 86.3284 86.3284C85.1569 87.5 83.2712 87.5 79.5 87.5H20.5C16.7288 87.5 14.8431 87.5 13.6716 86.3284C12.5 85.1569 12.5 83.2712 12.5 79.5V20.5Z" stroke="#C7C9D9"/>
<path fill-rule="evenodd" clip-rule="evenodd" d="M14.5 60.3333L14.9369 60.7702L33.6759 42.0312C34.6339 41.0732 35.3133 40.3956 35.8801 39.9748C36.4386 39.56 36.7909 39.4688 37.109 39.5301C37.4271 39.5914 37.7204 39.8069 38.0849 40.3994C38.4549 41.0007 38.834 41.8821 39.3677 43.1274L48.3767 64.1484L48.3925 64.1851C48.6427 64.7689 48.8524 65.2583 49.0687 65.61C49.295 65.9777 49.5902 66.2988 50.0536 66.3881C50.5171 66.4773 50.9104 66.2888 51.2571 66.0314C51.5885 65.7853 51.9649 65.4088 52.4139 64.9598L52.4142 64.9596L52.4424 64.9314L64.1918 53.182C64.8684 52.5053 65.3411 52.0341 65.7451 51.7259C66.1375 51.4265 66.4057 51.3284 66.6666 51.3284C66.9276 51.3284 67.1958 51.4265 67.5882 51.7259C67.9922 52.0341 68.4649 52.5053 69.1415 53.182L82.9798 67.0202L83.6869 66.3131L69.8486 52.4749L69.8227 52.4489L69.8226 52.4489C69.178 51.8042 68.6584 51.2846 68.1948 50.9309C67.7134 50.5636 67.2341 50.3284 66.6666 50.3284C66.0992 50.3284 65.6199 50.5636 65.1385 50.9309C64.6749 51.2846 64.1553 51.8042 63.5106 52.4489L63.4847 52.4749L51.7353 64.2243C51.2505 64.7091 50.9259 65.0317 50.6609 65.2285C50.4041 65.4192 50.3004 65.4172 50.2427 65.4061C50.1851 65.395 50.0881 65.3584 49.9204 65.0859C49.7474 64.8048 49.566 64.3847 49.2959 63.7545L40.2869 42.7335L40.2697 42.6934C39.7571 41.4972 39.3499 40.547 38.9367 39.8754C38.5135 39.1875 38.0221 38.6876 37.2981 38.5481C36.5742 38.4087 35.9323 38.6904 35.2839 39.1719C34.6508 39.642 33.9198 40.373 32.9996 41.2933L32.9688 41.3241L14.5 59.7929V60.3333Z" fill="#C7C9D9"/>
<circle cx="68.75" cy="31.25" r="6.25" fill="#C7C9D9"/>
</svg>
