<svg width="198" height="12" viewBox="0 0 198 12" fill="none" xmlns="http://www.w3.org/2000/svg">
<path fill-rule="evenodd" clip-rule="evenodd" d="M65.6411 1.06002C43.8068 0.811361 21.8833 1.72009 0.749289 5.53587C0.372223 5.60369 0.215691 5.73706 0.18484 5.76758C0.00430535 5.94842 -0.0151527 6.14056 0.00769975 6.2988C0.0214112 6.39487 0.114004 6.80063 0.620186 6.84245C0.969829 6.87071 3.45157 6.67292 4.40909 6.62206C8.91674 6.38357 13.4153 6.04336 17.9115 5.65003C28.106 4.76164 38.2867 3.99306 48.4972 3.29343C54.2298 2.90009 59.9646 2.57457 65.696 2.30782C79.484 2.46719 93.2378 3.08885 106.734 3.73084C101.37 4.05749 96.4406 4.38865 92.3534 4.6034C85.4611 4.96509 78.5814 5.39232 71.7028 5.9552C68.1687 6.24341 64.639 6.55651 61.1118 6.9261C60.721 6.96792 59.8309 7.01087 59.4001 7.06173C59.2173 7.08208 59.0848 7.11486 59.0254 7.13746C58.6529 7.27988 58.606 7.57147 58.6015 7.71841C58.5992 7.8077 58.63 8.29485 59.2585 8.38979C88.4788 12.8453 118.964 7.6619 148.289 11.9931C148.633 12.0439 148.956 11.8088 149.007 11.4675C149.058 11.1273 148.821 10.8086 148.476 10.7577C120.856 6.67857 92.2072 11.0403 64.5522 7.83822C66.9689 7.60652 69.3867 7.39742 71.8067 7.19962C78.6728 6.63788 85.5399 6.21177 92.4208 5.85009C99.3451 5.48727 108.705 4.77859 118.503 4.33213C126.912 4.79554 135.316 5.31546 143.726 5.75627C147.274 5.94163 150.823 6.09535 154.369 6.28411C155.827 6.36097 159.578 6.68309 160.122 6.56328C160.545 6.46947 160.647 6.16995 160.672 6.01963C160.698 5.85687 160.682 5.65455 160.49 5.46127C160.431 5.40024 160.253 5.27365 159.887 5.16967C149.998 2.36774 133.804 2.41181 118.638 3.08884C115.376 2.908 112.114 2.7362 108.851 2.58135C101.38 2.22532 93.8274 1.86815 86.2312 1.58671C107.638 1.0634 129.056 1.21373 150.479 1.59237C159.473 1.75174 183.719 2.71247 193.268 3.5613C193.151 3.67998 193.083 3.84499 193.091 4.02471C193.107 4.36831 193.402 4.63505 193.751 4.61923C195.721 4.52881 196.86 4.41352 197.311 4.29484C197.592 4.22137 197.746 4.10383 197.816 4.02697C197.99 3.8416 198.022 3.64267 197.988 3.45392C197.966 3.33637 197.912 3.20752 197.789 3.08884C197.707 3.00746 197.506 2.88314 197.163 2.79837C193.409 1.87494 161.211 0.533306 150.502 0.343421C122.2 -0.156157 93.9096 -0.257871 65.6411 1.06002ZM152.231 4.92326C146.701 4.18068 140.218 3.91959 133.455 3.93654C136.9 4.13434 140.346 4.32762 143.793 4.50846C146.605 4.65653 149.418 4.78311 152.231 4.92326ZM39.5574 2.67291C32.3017 3.20188 25.054 3.77379 17.8007 4.40674C16.9631 4.47907 16.1267 4.55028 15.2892 4.62036C23.3104 3.64833 31.415 3.03008 39.5574 2.67291Z" fill="#1C1C28"/>
</svg>
