<svg width="65" height="116" viewBox="0 0 65 116" fill="none" xmlns="http://www.w3.org/2000/svg">
<path d="M47.6963 14.1813C41.7485 26.1112 26.5025 33.6759 18.9412 39.5793C12.0213 44.9842 -0.365018 59.1681 0.0082475 69.1282C0.379989 79.0913 7.96566 88.9982 17.9219 89.8296C22.2549 90.1898 26.5893 88.9131 30.9268 89.2079C44.8108 90.1533 52.5442 105.689 64.7507 112.35C78.8206 120.029 96.751 114.598 109.768 105.255C118.047 99.314 125.497 91.4316 128.134 81.6038C130.77 71.7774 127.351 59.8734 118.375 55.0461C110.286 50.6961 97.9668 51.3344 94.8177 42.724C92.6131 36.7036 96.911 30.4096 97.8769 24.073C99.3883 14.1449 91.8178 4.2623 82.2226 1.22701C72.6259 -1.80676 61.8743 1.06134 53.6107 6.79754C51.0539 8.72926 49.0209 11.2673 47.6963 14.1813Z" fill="#6698FA"/>
</svg>
