<svg width="173" height="109" viewBox="0 0 173 109" fill="none" xmlns="http://www.w3.org/2000/svg">
<path d="M41.1102 18.6025C31.0127 23.9498 22.2155 31.4598 15.3443 40.5985C8.47313 49.7372 3.6967 60.2801 1.35475 71.4773C-0.734733 80.719 -0.402546 90.3448 2.31905 99.4199C6.0141 109.505 12.4913 118.333 20.9977 124.877C42.5275 142.463 71.7153 148.3 99.4525 146.765C121.498 145.546 144.526 139.319 159.627 123.19C174.733 107.061 178.521 79.1434 163.263 63.1589C157.183 56.791 148.928 52.9276 142.431 46.9841C126.772 32.6637 120.853 6.35804 100.35 0.933003C93.9628 -0.394945 87.3625 -0.304351 81.0139 1.19847C63.7108 4.36151 49.9768 13.9865 41.1102 18.6025Z" fill="#FDED72"/>
</svg>
