<svg width="13" height="13" viewBox="0 0 13 13" fill="none" xmlns="http://www.w3.org/2000/svg">
<path fill-rule="evenodd" clip-rule="evenodd" d="M6.82293 11.8415C5.14305 11.4377 3.52533 11.4642 1.82139 11.4158C1.48863 11.4064 1.21197 11.6618 1.20195 11.986C1.19192 12.3105 1.45454 12.5812 1.78731 12.5908C3.40304 12.6366 4.94058 12.5996 6.53626 12.9828C6.85901 13.0604 7.18576 12.8674 7.26394 12.5524C7.34413 12.2376 7.14568 11.9189 6.82293 11.8415Z" fill="#1C1C28"/>
<path fill-rule="evenodd" clip-rule="evenodd" d="M10.0783 8.41139C7.51643 5.67231 4.22083 3.09151 0.893142 1.28766C0.60247 1.13035 0.235607 1.23281 0.0752373 1.51648C-0.0851336 1.80014 0.0191164 2.15824 0.309788 2.31555C3.52722 4.05985 6.71459 6.55582 9.19031 9.20439C9.41482 9.44378 9.7957 9.46043 10.0403 9.24161C10.2848 9.02279 10.3029 8.65078 10.0783 8.41139Z" fill="#1C1C28"/>
<path fill-rule="evenodd" clip-rule="evenodd" d="M12.8768 7.71744C13.2998 5.21227 12.5781 2.6301 11.5578 0.35217C11.4235 0.054989 11.0686 -0.0805782 10.7659 0.0493039C10.4612 0.179382 10.3229 0.526327 10.4552 0.823508C11.3854 2.8981 12.075 5.2444 11.6901 7.52605C11.636 7.84615 11.8585 8.14882 12.1852 8.20151C12.512 8.25441 12.8227 8.03735 12.8768 7.71744Z" fill="#1C1C28"/>
</svg>
