<svg width="67" height="40" viewBox="0 0 67 40" fill="none" xmlns="http://www.w3.org/2000/svg">
<path fill-rule="evenodd" clip-rule="evenodd" d="M48.3082 38.0536C54.2901 38.1983 60.4032 37.9088 66.123 39.9617C66.4639 40.0828 66.8389 39.9065 66.9621 39.5643C67.0828 39.2222 66.9071 38.8458 66.5661 38.7221C60.7127 36.6218 54.4606 36.885 48.3397 36.7376C47.9777 36.7271 47.6762 37.0166 47.6683 37.3798C47.6578 37.743 47.9463 38.043 48.3082 38.0536Z" fill="#1C1C28"/>
<path fill-rule="evenodd" clip-rule="evenodd" d="M47.7705 29.3372C49.6351 27.6154 51.6702 26.3255 54.1301 25.6861C54.4816 25.5951 54.6913 25.2358 54.6022 24.8842C54.5104 24.5325 54.1511 24.3212 53.8023 24.4123C51.1274 25.1071 48.9113 26.4973 46.8841 28.3684C46.6166 28.6142 46.5983 29.0308 46.8448 29.2983C47.0887 29.5654 47.5057 29.583 47.7705 29.3372Z" fill="#1C1C28"/>
<path fill-rule="evenodd" clip-rule="evenodd" d="M42.5833 10.5391C43.4383 7.59792 45.1219 5.29706 47.7025 3.6355C48.0067 3.43942 48.0959 3.03199 47.8992 2.72642C47.7051 2.42085 47.2986 2.33188 46.9944 2.52796C44.1385 4.36771 42.2712 6.91387 41.3245 10.1704C41.2222 10.5189 41.4242 10.8847 41.7704 10.9863C42.1192 11.0882 42.4837 10.8876 42.5833 10.5391Z" fill="#1C1C28"/>
<path fill-rule="evenodd" clip-rule="evenodd" d="M13.1191 6.54743C12.6103 7.14831 12.154 7.79577 11.7659 8.48509C11.5928 8.79197 11.2886 9.44417 11.2414 10.0035C11.1889 10.5993 11.3908 11.1021 11.9101 11.3668C12.5998 11.7179 13.1506 11.6814 13.5754 11.469C13.9845 11.265 14.3045 10.8641 14.5064 10.3267C14.8919 9.29942 14.8342 7.72946 14.6323 6.83354C15.1751 6.27135 15.7705 5.76152 16.4077 5.3083C21.1545 1.9328 28.1173 3.17746 33.4751 8.22452C35.3502 9.99163 36.2523 13.7027 36.7218 17.7067C37.4534 23.941 37.0365 30.9042 36.9788 32.9442C36.9656 33.448 37.0129 33.747 37.0391 33.8067C37.1623 34.1004 37.38 34.1768 37.5321 34.2057C37.7524 34.2452 37.9281 34.2031 38.0697 34.1294C38.2612 34.0283 38.4185 33.8504 38.492 33.5759C38.5313 33.4243 38.5418 33.2132 38.5365 32.9882C38.5313 32.8321 38.4998 32.6616 38.5313 32.5497C38.7358 31.8333 38.9823 31.1337 39.2236 30.4291C40.0287 28.0606 41.0699 25.8411 42.2264 23.6242C45.9006 16.58 49.4541 9.13702 55.478 3.77018C55.7481 3.52935 55.7743 3.11298 55.5331 2.84136C55.2944 2.56974 54.8801 2.545 54.6073 2.78608C48.4628 8.259 44.8122 15.8301 41.0646 23.0138C40.0812 24.8996 39.179 26.7881 38.429 28.7633C38.505 25.2691 38.4762 20.4324 37.8389 16.1528C37.2725 12.3467 36.1946 8.98305 34.372 7.26517C28.5028 1.73619 20.8476 0.536811 15.6498 4.23473C15.0938 4.63057 14.5641 5.06591 14.0711 5.53808C11.3515 0.609724 5.52953 -1.36558 0.384156 0.99161C0.0537186 1.14242 -0.0905173 1.53301 0.0589662 1.86332C0.211072 2.19363 0.599191 2.33945 0.929628 2.18864C5.56624 0.06464 10.8244 1.96018 13.1191 6.54743ZM13.4994 8.19741C13.2869 8.4985 13.0902 8.81066 12.9067 9.13334C12.8096 9.30653 12.6418 9.63947 12.571 9.96531C12.5552 10.0416 12.5526 10.1611 12.5526 10.2164C12.7336 10.3059 12.8752 10.3491 12.9906 10.2909C13.1348 10.2193 13.2083 10.0508 13.2791 9.86266C13.4574 9.39049 13.5151 8.7646 13.4994 8.19741Z" fill="#1C1C28"/>
</svg>
