<svg width="156" height="14" viewBox="0 0 156 14" fill="none" xmlns="http://www.w3.org/2000/svg">
<path fill-rule="evenodd" clip-rule="evenodd" d="M93.0951 6.39436C72.3935 6.64302 51.6815 7.62944 31.0701 9.39263C21.2707 10.2311 9.89071 10.1263 0.386558 12.9848C-0.0870102 13.1286 0.00317921 13.5602 0.0134296 13.6033C0.0339304 13.6917 0.120056 13.9855 0.49727 13.9999C0.538271 14.002 0.827312 13.9609 0.938016 13.9465C3.74457 13.5766 6.54088 13.1451 9.34949 12.7957C19.0464 11.5853 28.7719 10.6709 38.5118 9.8694C51.4396 8.80491 64.4781 8.23771 77.4408 7.79383C84.5361 7.55134 91.8015 7.87396 98.9194 7.37254C101.533 7.35816 104.147 7.35615 106.761 7.36437C117.688 7.40341 128.602 7.81852 139.511 8.38775C143.019 8.57065 145.694 8.76793 149.128 8.9015C150.432 8.95288 152.5 8.98782 153.939 9.01042C154.151 9.01453 154.69 9.0186 154.913 9.02066C154.936 9.02477 154.958 9.02477 154.983 9.02477C155.069 9.02477 155.11 9.0186 155.118 9.0186C155.606 8.94668 155.561 8.48431 155.549 8.41444C155.547 8.40006 155.473 8.0096 155.053 7.99522C154.952 7.99111 154.233 7.98703 153.956 7.98292C152.525 7.96032 150.465 7.92538 149.167 7.87606C145.739 7.74248 143.066 7.5452 139.564 7.36231C128.639 6.79307 117.708 6.37591 106.765 6.33686C105.428 6.33275 104.09 6.3307 102.753 6.33275C102.708 6.21562 102.608 6.0841 102.386 6.02656C102.179 5.97313 100.697 5.92587 100.125 5.8786C95.8914 5.52925 96.0165 5.54569 91.3587 5.26005C84.3044 4.82644 83.2302 4.72775 75.8929 4.54486C62.5654 4.21195 49.2317 4.2387 35.9021 4.27158C29.3213 4.29007 22.2752 4.736 15.594 3.90372C17.7958 3.64479 20.0058 3.45574 22.2117 3.23996C29.7437 2.50427 37.2818 2.04804 44.8445 1.72746C62.9857 0.958888 81.1555 0.652717 99.2905 1.70077C95.4302 1.73776 91.5719 1.82404 87.7116 1.87953C71.9978 2.10969 56.1322 1.93709 40.4512 3.13104C40.1703 3.15365 39.9592 3.40023 39.9797 3.68177C40.0002 3.96536 40.2482 4.17704 40.5291 4.15649C56.1896 2.96253 72.0327 3.13719 87.726 2.90703C93.5564 2.82277 99.3848 2.67072 105.215 2.71593C107.216 2.73237 109.217 2.80636 111.218 2.83102C111.613 2.83718 112.632 2.91527 112.778 2.88239C113.1 2.81047 113.169 2.57207 113.19 2.45494C113.2 2.38507 113.233 1.98229 112.741 1.83844C109.383 0.856146 103.186 0.901356 99.9219 0.708186C81.5635 -0.380965 63.1681 -0.0768331 44.8015 0.699958C37.2203 1.02259 29.6637 1.48089 22.1112 2.21863C19.4728 2.47551 16.8282 2.69745 14.2 3.03858C13.7756 3.09406 12.8223 3.17422 12.3611 3.25848C12.1684 3.29341 12.0289 3.3427 11.9674 3.37763C11.7276 3.51326 11.6845 3.71055 11.6845 3.84412C11.6825 3.94687 11.7255 4.30855 12.2278 4.40719C19.8807 5.9094 28.2082 5.31963 35.9041 5.29908C49.2255 5.2662 62.549 5.23945 75.8683 5.57236C83.1871 5.75525 84.2572 5.85188 91.2972 6.28549C91.9922 6.32659 92.5806 6.36354 93.0951 6.39436Z" fill="#1C1C28"/>
</svg>
