<svg width="65" height="21" viewBox="0 0 65 21" fill="none" xmlns="http://www.w3.org/2000/svg">
<path fill-rule="evenodd" clip-rule="evenodd" d="M38.1996 16.1732C38.7666 15.5904 39.2708 14.9349 39.7034 14.1999C41.2221 11.621 40.1721 7.94037 37.9638 5.11363C35.7566 2.28788 32.4359 0.37465 29.6451 1.14821C28.0493 1.59025 27.0915 2.38888 26.5868 3.36503C26.0851 4.33622 26.0315 5.50375 26.3117 6.73547C27.0942 10.1684 30.5148 14.1302 32.7529 15.2601C33.7884 15.7822 34.8585 16.2339 35.9534 16.6211C33.2133 18.5137 29.4403 19.1297 25.3561 19.0004C16.4799 18.7197 6.11306 14.8768 1.04447 12.2069C0.772162 12.0635 0.436731 12.1681 0.294227 12.4399C0.151722 12.7117 0.256554 13.0485 0.528866 13.192C5.69783 15.9147 16.2724 19.8265 25.3243 20.1124C30.0003 20.2606 34.2674 19.431 37.24 17.0453C45.5959 19.5949 55.3411 18.8057 63.6021 18.2016C63.9079 18.1803 64.1378 17.9126 64.1145 17.6057C64.0901 17.2999 63.8236 17.069 63.5168 17.0913C55.5933 17.6702 46.2741 18.4651 38.1996 16.1732ZM36.9856 15.8017C37.6617 15.1853 38.2542 14.4655 38.7443 13.6313C40.059 11.3995 38.9999 8.24314 37.0882 5.79621C35.916 4.29683 34.4075 3.05802 32.8506 2.46053C31.8719 2.08448 30.8767 1.96356 29.9458 2.22207C28.7241 2.5605 27.9616 3.13208 27.5766 3.87908C27.1877 4.63004 27.1794 5.53759 27.3976 6.49117C28.11 9.62013 31.2142 13.2378 33.2515 14.2661C34.453 14.8729 35.7011 15.3795 36.9856 15.8017Z" fill="#1C1C28"/>
</svg>
