<svg width="8" height="8" viewBox="0 0 8 8" fill="none" xmlns="http://www.w3.org/2000/svg">
<path fill-rule="evenodd" clip-rule="evenodd" d="M1.0187 3.53839C1.37563 3.41121 1.75122 3.24218 2.04086 2.99746C2.38486 2.7068 2.52477 2.33244 2.61871 1.93839C2.73933 1.43214 2.78752 0.892848 2.93378 0.385772C2.98793 0.197464 3.09215 0.126283 3.13687 0.0946933C3.24989 0.0148984 3.36414 -0.00643068 3.47163 0.00156932C3.59901 0.0108001 3.77399 0.0590019 3.88907 0.27254C3.90548 0.303104 3.92681 0.349671 3.94117 0.413466C3.95163 0.460235 3.9584 0.606488 3.96948 0.666796C3.99717 0.815309 4.02035 0.963827 4.04209 1.11316C4.1145 1.61019 4.15615 2.03233 4.38487 2.48895C4.69522 3.10885 5.0062 3.48813 5.42795 3.65613C5.83574 3.81859 6.32333 3.78803 6.9463 3.66065C7.00558 3.64629 7.06424 3.63398 7.12229 3.62393C7.39696 3.57593 7.65953 3.75624 7.71348 4.02988C7.76743 4.30331 7.59287 4.56977 7.32066 4.62987C7.26384 4.64239 7.20784 4.65428 7.15246 4.66516C6.31061 4.87357 5.33604 5.61736 4.76968 6.26865C4.59512 6.46947 4.33953 7.0309 4.07881 7.38905C3.8864 7.65326 3.67019 7.82741 3.48866 7.88895C3.36702 7.93039 3.26445 7.92404 3.17974 7.90311C3.05666 7.87275 2.95451 7.80608 2.87615 7.70002C2.83348 7.64197 2.79389 7.56423 2.77501 7.46495C2.76599 7.41715 2.76497 7.29573 2.76517 7.24075C2.71205 7.05798 2.64702 6.87951 2.59963 6.6951C2.48661 6.2551 2.26486 5.97654 2.00148 5.60854C1.75512 5.26413 1.49051 5.04772 1.10261 4.875C1.05215 4.8627 0.644971 4.763 0.501176 4.70577C0.291125 4.62187 0.191017 4.48136 0.15471 4.40567C0.092966 4.27726 0.0866127 4.16506 0.0989204 4.07152C0.117177 3.93347 0.179126 3.81532 0.289075 3.71993C0.357177 3.66065 0.458922 3.603 0.595127 3.5749C0.700358 3.55295 0.979525 3.54024 1.0187 3.53839ZM3.40743 2.82126C3.4263 2.86331 3.4464 2.90557 3.46774 2.94823C3.9223 3.85613 4.43061 4.36301 5.04845 4.60895L5.06917 4.61695C4.65584 4.92383 4.28168 5.2668 3.99573 5.59562C3.87799 5.731 3.7221 6.01224 3.55369 6.30065C3.40066 5.80321 3.1504 5.45162 2.83574 5.01162C2.59533 4.67583 2.34343 4.42311 2.03389 4.21716C2.2741 4.09388 2.50322 3.94947 2.70281 3.78085C3.03512 3.50003 3.25481 3.17469 3.40743 2.82126Z" fill="#1C1C28"/>
</svg>
