<svg width="139" height="181" viewBox="0 0 139 181" fill="none" xmlns="http://www.w3.org/2000/svg">
<path d="M48.6595 -74.9721C34.1426 -84.5196 15.1225 -78.6251 11.3089 -63.3995C10.2782 -59.2721 9.66942 -54.015 5.73314 -53.0742C3.61252 -52.8174 1.33708 -53.2948 -0.781603 -54.4409C-28.0972 -66.3737 -55.1661 -86.6474 -82.5675 -86.5434C-89.8037 -86.5189 -97.2735 -84.807 -98.2745 -74.4847C-98.6823 -69.4228 -97.3928 -64.0164 -94.6204 -59.1632C-88.1973 -47.604 -77.2457 -40.2358 -68.8259 -30.4137C-68.7557 -30.33 -68.6815 -30.2453 -68.6096 -30.1589C-66.4784 -27.5582 -65.0364 -24.4662 -64.4807 -21.3054C-63.925 -18.1445 -64.2826 -15.0689 -65.5048 -12.4987C-66.727 -9.92853 -68.7541 -7.9891 -71.3092 -6.94534C-73.8643 -5.90157 -76.8227 -5.80434 -79.7805 -6.66703L-92.7412 -10.402C-106.645 -14.4061 -121.011 -18.4596 -133.805 -13.7924C-139.384 -11.8963 -143.809 -7.87731 -146.36 -2.38916C-155.047 17.4981 -132.684 40.5581 -112.235 47.0399C-93.4273 53.0005 -74.3474 51.0373 -55.6264 57.7507C-49.7377 59.5561 -44.1375 63.0793 -39.5088 67.8905C-31.8958 76.5352 -30.6343 88.4934 -29.4042 99.3075C-26.8478 121.821 -21.7727 145.707 -5.01415 164.205C-1.08388 168.695 3.51354 172.461 8.50423 175.278C13.4949 178.094 18.7769 179.904 24.0356 180.6C52.9834 183.727 61.1243 149.32 55.1438 123.905C54.1345 119.61 54.1111 115.322 55.0758 111.426C56.0405 107.53 57.9632 104.148 60.6714 101.582C72.439 90.6054 86.7148 105.216 100.465 110.676C107.564 113.497 114.888 113.863 121.288 111.718C127.688 109.572 132.8 105.035 135.822 98.8205C138.844 92.606 139.605 85.0654 137.984 77.3833C136.363 69.7012 132.454 62.3127 126.869 56.3784C119.278 48.3147 109.394 43.7056 100.475 37.601C91.5526 31.4916 82.695 22.3192 81.63 11.9165C80.9439 5.20535 83.6579 -0.585267 85.1635 -6.68725C91.8051 -33.5599 68.9231 -61.6428 48.6595 -74.9721Z" fill="#FF8800"/>
</svg>
