<svg width="178" height="273" viewBox="0 0 178 273" fill="none" xmlns="http://www.w3.org/2000/svg">
<path d="M17.1503 186.362C8.05202 202.474 -0.297876 219.959 0.00815928 238.471C0.174401 248.552 3.54458 259.371 11.8982 264.993C17.8613 268.35 24.5593 270.181 31.398 270.323C79.2164 274.929 127.42 273.587 174.909 266.329C197.122 262.934 219.742 257.997 238.474 245.569C254.471 234.954 267.631 215.417 261.438 197.22C253.368 173.491 218.249 166.787 212.197 142.461C210.062 133.86 212.201 124.839 214.335 116.238C219.617 94.9855 224.896 73.7356 230.173 52.4884C233.797 37.8949 236.899 20.7613 227.28 9.21521C218.064 -1.84971 200.439 -2.26613 187.65 4.33557C174.86 10.9373 54.8226 119.675 17.1503 186.362Z" fill="#57EBA1"/>
</svg>
